<svg width="170" height="49" viewBox="0 0 170 49" fill="none" xmlns="http://www.w3.org/2000/svg">
<path d="M52.3415 32V16.5648H55.6049V29.3094H62.2221V32H52.3415ZM67.4375 32H63.9405L69.269 16.5648H73.4744L78.7953 32H75.2983L71.432 20.092H71.3114L67.4375 32ZM67.219 25.933H75.4792V28.4804H67.219V25.933ZM80.6531 32V16.5648H86.7428C87.9135 16.5648 88.9108 16.7884 89.7349 17.2356C90.5589 17.6778 91.1869 18.2933 91.619 19.0821C92.0562 19.8659 92.2747 20.7703 92.2747 21.7953C92.2747 22.8203 92.0536 23.7247 91.6115 24.5085C91.1693 25.2923 90.5287 25.9028 89.6896 26.3399C88.8556 26.7771 87.8457 26.9956 86.6599 26.9956H82.7785V24.3804H86.1323C86.7604 24.3804 87.2779 24.2724 87.6849 24.0563C88.0969 23.8352 88.4034 23.5313 88.6044 23.1444C88.8104 22.7525 88.9134 22.3028 88.9134 21.7953C88.9134 21.2828 88.8104 20.8356 88.6044 20.4538C88.4034 20.0669 88.0969 19.7679 87.6849 19.5569C87.2729 19.3409 86.7503 19.2328 86.1172 19.2328H83.9165V32H80.6531ZM108.578 24.2824C108.578 25.9656 108.259 27.3976 107.621 28.5783C106.988 29.7591 106.124 30.661 105.029 31.284C103.938 31.902 102.712 32.211 101.351 32.211C99.9791 32.211 98.7481 31.8995 97.6578 31.2765C96.5675 30.6534 95.7058 29.7516 95.0727 28.5708C94.4396 27.3901 94.1231 25.9606 94.1231 24.2824C94.1231 22.5992 94.4396 21.1673 95.0727 19.9865C95.7058 18.8058 96.5675 17.9064 97.6578 17.2884C98.7481 16.6653 99.9791 16.3538 101.351 16.3538C102.712 16.3538 103.938 16.6653 105.029 17.2884C106.124 17.9064 106.988 18.8058 107.621 19.9865C108.259 21.1673 108.578 22.5992 108.578 24.2824ZM105.27 24.2824C105.27 23.1921 105.107 22.2726 104.78 21.524C104.458 20.7753 104.004 20.2076 103.416 19.8207C102.828 19.4338 102.14 19.2404 101.351 19.2404C100.562 19.2404 99.8736 19.4338 99.2857 19.8207C98.6979 20.2076 98.2406 20.7753 97.9141 21.524C97.5925 22.2726 97.4317 23.1921 97.4317 24.2824C97.4317 25.3727 97.5925 26.2922 97.9141 27.0409C98.2406 27.7895 98.6979 28.3573 99.2857 28.7441C99.8736 29.131 100.562 29.3245 101.351 29.3245C102.14 29.3245 102.828 29.131 103.416 28.7441C104.004 28.3573 104.458 27.7895 104.78 27.0409C105.107 26.2922 105.27 25.3727 105.27 24.2824ZM110.996 32V16.5648H117.086C118.251 16.5648 119.246 16.7734 120.07 17.1904C120.899 17.6024 121.53 18.1877 121.962 18.9464C122.399 19.7001 122.617 20.5869 122.617 21.6069C122.617 22.6319 122.396 23.5137 121.954 24.2523C121.512 24.9858 120.871 25.5486 120.032 25.9405C119.198 26.3324 118.188 26.5284 117.003 26.5284H112.925V23.9056H116.475C117.098 23.9056 117.616 23.8202 118.028 23.6493C118.44 23.4785 118.746 23.2223 118.947 22.8806C119.153 22.5389 119.256 22.1144 119.256 21.6069C119.256 21.0944 119.153 20.6623 118.947 20.3106C118.746 19.9589 118.437 19.6926 118.02 19.5117C117.608 19.3258 117.088 19.2328 116.46 19.2328H114.259V32H110.996ZM119.331 24.9758L123.168 32H119.565L115.812 24.9758H119.331ZM124.924 32V16.5648H128.187V23.3705H128.391L133.945 16.5648H137.857L132.129 23.476L137.924 32H134.02L129.792 25.6541L128.187 27.6136V32H124.924ZM149.09 16.5648H152.354V26.5887C152.354 27.7141 152.085 28.6989 151.547 29.543C151.014 30.3871 150.268 31.0454 149.309 31.5177C148.349 31.9849 147.231 32.2186 145.955 32.2186C144.674 32.2186 143.553 31.9849 142.593 31.5177C141.634 31.0454 140.888 30.3871 140.355 29.543C139.822 28.6989 139.556 27.7141 139.556 26.5887V16.5648H142.82V26.3098C142.82 26.8977 142.948 27.4202 143.204 27.8774C143.465 28.3347 143.832 28.6939 144.304 28.9552C144.777 29.2164 145.327 29.3471 145.955 29.3471C146.588 29.3471 147.138 29.2164 147.605 28.9552C148.078 28.6939 148.442 28.3347 148.698 27.8774C148.959 27.4202 149.09 26.8977 149.09 26.3098V16.5648ZM154.134 16.5648H157.789L161.309 23.2122H161.46L164.979 16.5648H168.635L163.005 26.5434V32H159.764V26.5434L154.134 16.5648Z" fill="white"/>
<path d="M23.5416 29.096C19.5212 25.1082 15.928 16.1368 14.1578 9.41047C13.542 7.07054 15.5207 5.00431 17.9243 5.2822C19.3693 5.44925 20.5785 6.44984 21.0806 7.81507C22.8093 12.5159 26 19.871 28.1416 23.5921C29.2816 25.573 31.4228 27.0654 33.67 28.1723C37.1044 29.864 38.841 34.7533 35.0741 35.4371C33.7177 35.6833 29.8783 35.3813 23.5416 29.096Z" fill="url(#paint0_linear_3_89)"/>
<path d="M31.4804 18.6453L32.8243 13.951C33.5377 11.4589 36.5062 10.4278 38.611 11.941C39.9627 12.9129 40.5106 14.6604 39.9557 16.2301L38.5082 20.3247C37.3911 23.4845 34.0284 25.5861 32.1425 22.8155C31.4368 21.7788 31.1352 19.8509 31.4804 18.6453Z" fill="url(#paint1_linear_3_89)"/>
<path d="M19.2597 33.576L19.8223 33.1581C21.365 32.0122 23.7088 32.6419 25.111 33.956C26.7662 35.5071 26.7974 37.9152 25.1306 39.4539L24.5356 40.003C22.8156 41.5908 20.1077 41.4154 18.5883 39.6346C17.0245 37.8017 17.3255 35.0126 19.2597 33.576Z" fill="url(#paint2_linear_3_89)"/>
<defs>
<linearGradient id="paint0_linear_3_89" x1="31.6729" y1="7.61161" x2="16.2928" y2="40.5331" gradientUnits="userSpaceOnUse">
<stop stop-color="#5834BF"/>
<stop offset="1" stop-color="#AC34BF"/>
</linearGradient>
<linearGradient id="paint1_linear_3_89" x1="31.6729" y1="7.61161" x2="16.2928" y2="40.5331" gradientUnits="userSpaceOnUse">
<stop stop-color="#5834BF"/>
<stop offset="1" stop-color="#AC34BF"/>
</linearGradient>
<linearGradient id="paint2_linear_3_89" x1="31.6729" y1="7.61161" x2="16.2928" y2="40.5331" gradientUnits="userSpaceOnUse">
<stop stop-color="#5834BF"/>
<stop offset="1" stop-color="#AC34BF"/>
</linearGradient>
</defs>
</svg>
